<?xml version="1.0" standalone="no"?>
<!DOCTYPE svg PUBLIC "-//W3C//DTD SVG 20010904//EN"
 "http://www.w3.org/TR/2001/REC-SVG-20010904/DTD/svg10.dtd">
<svg version="1.0" xmlns="http://www.w3.org/2000/svg"
 width="213.000000pt" height="213.000000pt" viewBox="0 0 213.000000 213.000000"
 preserveAspectRatio="xMidYMid meet">
<metadata>
Created by potrace 1.14, written by Peter Selinger 2001-2017
</metadata>
<g transform="translate(0.000000,213.000000) scale(0.100000,-0.100000)"
fill="#000000" stroke="none">
<path d="M357 2122 c-12 -3 -16 -11 -13 -30 3 -15 7 -56 11 -92 3 -36 8 -72
10 -80 2 -8 6 -46 10 -85 3 -38 7 -81 10 -95 2 -14 7 -50 10 -80 3 -30 7 -71
10 -90 2 -19 9 -80 15 -135 6 -55 13 -111 15 -125 2 -14 6 -50 10 -80 3 -30 7
-69 10 -86 2 -17 6 -58 10 -90 3 -33 8 -75 10 -94 17 -138 24 -197 30 -260 3
-30 8 -71 11 -90 2 -19 7 -57 9 -85 22 -212 47 -405 57 -428 14 -35 59 -74
101 -85 18 -5 194 -9 392 -8 481 1 451 -18 490 313 14 114 28 226 30 248 3 22
14 117 25 210 11 94 23 188 25 210 3 22 7 56 10 75 2 19 7 58 10 85 6 56 13
112 20 165 3 19 8 62 11 95 3 33 7 67 9 75 1 8 6 44 9 80 7 58 29 244 41 340
17 132 25 213 23 216 -5 4 -1400 10 -1421 6z m1313 -112 c0 -17 -76 -245 -108
-325 -40 -101 -105 -230 -175 -352 -93 -161 -80 -139 -172 -283 -91 -143 -108
-167 -190 -270 -121 -151 -185 -266 -228 -410 -26 -85 -31 -112 -43 -212 -4
-29 -8 -55 -10 -57 -3 -3 -17 0 -32 5 -35 12 -49 43 -56 124 -4 36 -8 75 -10
87 -3 12 -7 53 -11 90 -3 37 -8 79 -10 93 -3 14 -7 48 -10 75 -3 28 -8 65 -11
83 -2 18 -6 54 -9 80 -6 47 -12 96 -20 162 -2 19 -7 56 -10 83 -12 105 -23
204 -41 342 -2 22 -7 58 -10 80 -2 22 -6 56 -9 75 -2 19 -7 60 -10 90 -5 51
-20 175 -30 245 -4 34 -15 125 -19 170 -2 17 -2 32 -1 35 2 3 278 5 614 5 544
0 611 -2 611 -15z"/>
</g>
</svg>
